<svg height="300px" width="300px" fill="#000" xmlns="http://www.w3.org/2000/svg" xmlns:xlink="http://www.w3.org/1999/xlink" version="1.1" x="0px" y="0px" viewBox="0 0 100 100" enable-background="new 0 0 100 100" xml:space="preserve"><g><g><path fill="none" d="M71.331,10.103c-8.994-0.462-15.488,4.168-20.448,14.563c-0.162,0.34-0.506,0.557-0.883,0.557    c-0.377,0-0.721-0.217-0.883-0.557c-4.736-9.926-10.875-14.594-19.246-14.594c-0.396,0-0.796,0.011-1.202,0.032    c-9.49,0.486-18.231,7.845-20.784,17.497c-3.192,12.073,2.566,24.457,6.282,30.764c6.938,11.776,18.019,22.537,31.204,30.303    c2.856,1.682,6.403,1.681,9.258,0c13.185-7.766,24.267-18.527,31.205-30.303c3.716-6.307,9.474-18.691,6.282-30.764    C89.562,17.948,80.821,10.589,71.331,10.103z"/><path d="M94.007,27.1C91.198,16.479,81.914,8.686,71.431,8.149C62.207,7.681,55.192,12.233,50,22.064    C44.807,12.233,37.78,7.681,28.568,8.149C18.085,8.686,8.802,16.479,5.993,27.1C2.62,39.859,8.61,52.787,12.48,59.358    c7.103,12.056,18.432,23.063,31.898,30.994c1.734,1.021,3.678,1.532,5.621,1.532c1.944,0,3.888-0.511,5.622-1.532    c13.466-7.931,24.794-18.939,31.898-30.994C91.39,52.787,97.38,39.86,94.007,27.1z M85.834,58.364    c-6.938,11.776-18.02,22.537-31.205,30.303c-2.856,1.681-6.403,1.682-9.258,0C32.186,80.901,21.104,70.14,14.166,58.364    C10.45,52.057,4.693,39.673,7.884,27.6c2.553-9.652,11.294-17.011,20.784-17.497c0.406-0.021,0.806-0.032,1.202-0.032    c8.371,0,14.51,4.668,19.246,14.594c0.162,0.34,0.506,0.557,0.883,0.557c0.377,0,0.721-0.217,0.883-0.557    c4.96-10.395,11.455-15.025,20.448-14.563c9.491,0.486,18.232,7.845,20.785,17.497C95.307,39.673,89.55,52.057,85.834,58.364z"/></g></g></svg>