<svg height="300px" width="300px" fill="#000" xmlns:dc="http://purl.org/dc/elements/1.1/" xmlns:cc="http://creativecommons.org/ns#" xmlns:rdf="http://www.w3.org/1999/02/22-rdf-syntax-ns#" xmlns:svg="http://www.w3.org/2000/svg" xmlns="http://www.w3.org/2000/svg" xmlns:sodipodi="http://sodipodi.sourceforge.net/DTD/sodipodi-0.dtd" xmlns:inkscape="http://www.inkscape.org/namespaces/inkscape" version="1.1" x="0px" y="0px" viewBox="0 0 100 100"><g transform="translate(0,-952.36218)"><path style="font-size:medium;font-style:normal;font-variant:normal;font-weight:normal;font-stretch:normal;text-indent:0;text-align:start;text-decoration:none;line-height:normal;letter-spacing:normal;word-spacing:normal;text-transform:none;direction:ltr;block-progression:tb;writing-mode:lr-tb;text-anchor:start;baseline-shift:baseline;opacity:1;color:#000;fill:#000;fill-opacity:1;stroke:none;stroke-width:1.99999988000000010;marker:none;visibility:visible;display:inline;overflow:visible;enable-background:accumulate;font-family:Sans;-inkscape-font-specification:Sans" d="M 19.8125 22 A 1.0000999 1.0000999 0 0 0 19 23 L 19 40 A 1.0000999 1.0000999 0 1 0 21 40 L 21 24 L 79 24 L 79 49.3125 L 68.75 37.34375 A 1.0000999 1.0000999 0 0 0 67.875 36.96875 A 1.0000999 1.0000999 0 0 0 67.25 38.625 L 79.25 52.625 A 1.0000999 1.0000999 0 0 0 80.75 52.625 L 92.75 38.625 A 1.0000999 1.0000999 0 1 0 91.25 37.34375 L 81 49.3125 L 81 23 A 1.0000999 1.0000999 0 0 0 80 22 L 20 22 A 1.0000999 1.0000999 0 0 0 19.8125 22 z M 19.75 47 A 1.0000999 1.0000999 0 0 0 19.25 47.34375 L 7.25 61.34375 A 1.0000999 1.0000999 0 1 0 8.75 62.625 L 19 50.65625 L 19 77 A 1.0000999 1.0000999 0 0 0 20 78 L 80 78 A 1.0000999 1.0000999 0 0 0 81 77 L 81 60 A 1.0000999 1.0000999 0 1 0 79 60 L 79 76 L 21 76 L 21 50.65625 L 31.25 62.625 A 1.0000999 1.0000999 0 1 0 32.75 61.34375 L 20.75 47.34375 A 1.0000999 1.0000999 0 0 0 19.75 47 z " transform="translate(0,952.36218)"/></g></svg>